
<svg width="400" height="400" viewBox="0 0 400 400" fill="none" xmlns="http://www.w3.org/2000/svg">
  <!-- Background Gradient -->
  <defs>
    <linearGradient id="dropletGradient" x1="0%" y1="0%" x2="0%" y2="100%">
      <stop offset="0%" style="stop-color:#33C3F0;stop-opacity:0.7"/>
      <stop offset="100%" style="stop-color:#0EA5E9;stop-opacity:1"/>
    </linearGradient>
  </defs>

  <!-- Water Drop Group -->
  <g>
    <!-- Main Drop with Gradient -->
    <path d="M200 60C200 60 120 180 120 260C120 304.183 156.863 340 200 340C243.137 340 280 304.183 280 260C280 180 200 60 200 60Z" fill="url(#dropletGradient)"/>
    
    <!-- Inner Highlight -->
    <path d="M200 100C200 100 150 190 150 260C150 287.614 172.386 310 200 310C227.614 310 250 287.614 250 260C250 190 200 100 200 100Z" fill="white" fill-opacity="0.3"/>
  </g>
  
  <!-- Microplastic Particles -->
  <circle cx="150" cy="150" r="5" fill="#D946EF" opacity="0.7"/>
  <circle cx="260" cy="200" r="4" fill="#D946EF" opacity="0.8"/>
  <circle cx="180" cy="280" r="3" fill="#D946EF" opacity="0.6"/>
</svg>
